<svg width="80" height="44" viewBox="0 0 80 44" fill="none" xmlns="http://www.w3.org/2000/svg">
<path d="M38.7331 12.001V4.82436H44.1206V12.001H43.226V5.61841H39.6377V12.001H38.7331ZM52.347 8.40262C52.347 8.95879 52.2766 9.4647 52.1359 9.92036C51.9952 10.3693 51.7841 10.758 51.5027 11.0863C51.228 11.4147 50.8829 11.6659 50.4674 11.8402C50.0587 12.0144 49.5829 12.1015 49.0401 12.1015C48.4773 12.1015 47.9881 12.0144 47.5726 11.8402C47.1572 11.6592 46.8121 11.408 46.5374 11.0863C46.2626 10.758 46.0582 10.366 45.9242 9.91031C45.7902 9.45465 45.7232 8.94874 45.7232 8.39257C45.7232 7.65547 45.8438 7.01219 46.0851 6.46272C46.3263 5.91325 46.6915 5.4844 47.1806 5.17616C47.6765 4.86792 48.2997 4.7138 49.0502 4.7138C49.7672 4.7138 50.3702 4.86792 50.8594 5.17616C51.3486 5.47769 51.7171 5.90655 51.9651 6.46272C52.2197 7.01219 52.347 7.65882 52.347 8.40262ZM46.6781 8.40262C46.6781 9.00569 46.7618 9.52501 46.9294 9.96057C47.0969 10.3961 47.3549 10.7312 47.7033 10.9657C48.0585 11.2002 48.5041 11.3175 49.0401 11.3175C49.5829 11.3175 50.0252 11.2002 50.3669 10.9657C50.7153 10.7312 50.9733 10.3961 51.1408 9.96057C51.3084 9.52501 51.3921 9.00569 51.3921 8.40262C51.3921 7.498 51.2045 6.79106 50.8293 6.2818C50.454 5.76583 49.861 5.50785 49.0502 5.50785C48.5074 5.50785 48.0585 5.62511 47.7033 5.85964C47.3549 6.08747 47.0969 6.41916 46.9294 6.85472C46.7618 7.28357 46.6781 7.79954 46.6781 8.40262ZM53.9477 4.82436H54.792V8.76446C54.792 8.93198 54.7886 9.11626 54.7819 9.31728C54.7819 9.51161 54.7786 9.70593 54.7719 9.90026C54.7652 10.0946 54.7551 10.2688 54.7417 10.4229C54.735 10.5703 54.7283 10.6843 54.7216 10.7647H54.7618L58.712 4.82436H59.7171V12.001H58.8728V8.10108C58.8728 7.92016 58.8761 7.72583 58.8828 7.5181C58.8895 7.30368 58.8962 7.0993 58.9029 6.90498C58.9164 6.70395 58.9264 6.52638 58.9331 6.37226C58.9398 6.21814 58.9465 6.10422 58.9532 6.03051H58.913L54.9528 12.001H53.9477V4.82436ZM64.7285 5.5179C64.3465 5.5179 64.0014 5.58491 63.6932 5.71893C63.3849 5.84624 63.1236 6.03722 62.9092 6.29185C62.6947 6.53978 62.5306 6.84467 62.4167 7.20651C62.3027 7.56166 62.2458 7.96371 62.2458 8.41267C62.2458 9.00234 62.3362 9.51496 62.5172 9.95051C62.7048 10.3861 62.9795 10.7211 63.3414 10.9556C63.7099 11.1902 64.1689 11.3074 64.7184 11.3074C65.0333 11.3074 65.3315 11.2806 65.613 11.227C65.8944 11.1734 66.1691 11.1064 66.4372 11.026V11.81C66.1691 11.9105 65.891 11.9842 65.6029 12.0311C65.3215 12.078 64.9831 12.1015 64.5877 12.1015C63.8573 12.1015 63.2476 11.9507 62.7584 11.6492C62.2692 11.3476 61.9007 10.9188 61.6528 10.3626C61.4115 9.80645 61.2909 9.15311 61.2909 8.40262C61.2909 7.85985 61.3646 7.36398 61.512 6.91503C61.6662 6.46607 61.8873 6.07742 62.1754 5.74908C62.4703 5.42074 62.8321 5.16946 63.261 4.99523C63.6898 4.81431 64.1823 4.72385 64.7385 4.72385C65.107 4.72385 65.4622 4.7607 65.8039 4.83441C66.1457 4.90812 66.4506 5.01198 66.7186 5.146L66.3568 5.9099C66.1356 5.80939 65.8877 5.71892 65.613 5.63851C65.3449 5.5581 65.0501 5.5179 64.7285 5.5179ZM73.2402 12.001H72.1547L68.9081 8.36241V12.001H68.0035V4.82436H68.9081V8.3021L72.0743 4.82436H73.0995L69.9836 8.31216L73.2402 12.001ZM75.9959 11.5688V12.001H73.2419V11.5688H75.9959ZM40.5 24.001H39.4144L36.1679 20.3624V24.001H35.2632V16.8244H36.1679V20.3021L39.334 16.8244H40.3592L37.2433 20.3122L40.5 24.001ZM46.6429 24.001H45.7383V17.6184H43.4667C43.4198 17.987 43.3696 18.3756 43.316 18.7844C43.2624 19.1864 43.2054 19.5851 43.1451 19.9805C43.0915 20.3758 43.0379 20.7477 42.9843 21.0962C42.9307 21.4446 42.8771 21.7495 42.8234 22.0108C42.7363 22.4598 42.6291 22.8417 42.5018 23.1567C42.3745 23.4716 42.2036 23.7095 41.9892 23.8703C41.7815 24.0311 41.5067 24.1115 41.165 24.1115C41.0511 24.1115 40.9338 24.0981 40.8132 24.0713C40.6993 24.0512 40.5988 24.0244 40.5117 23.9909V23.2371C40.5854 23.2706 40.6691 23.3007 40.7629 23.3275C40.8567 23.3476 40.9573 23.3577 41.0645 23.3577C41.2655 23.3577 41.423 23.2773 41.5369 23.1165C41.6575 22.9489 41.7513 22.7446 41.8183 22.5033C41.8853 22.2554 41.9423 22.0108 41.9892 21.7696C42.0294 21.5753 42.0763 21.3173 42.1299 20.9956C42.1835 20.6673 42.2405 20.2854 42.3008 19.8498C42.3678 19.4142 42.4348 18.9418 42.5018 18.4326C42.5755 17.9166 42.6459 17.3805 42.7129 16.8244H46.6429V24.001ZM48.603 16.8244H49.4473V20.7645C49.4473 20.932 49.444 21.1163 49.4373 21.3173C49.4373 21.5116 49.4339 21.7059 49.4272 21.9003C49.4205 22.0946 49.4105 22.2688 49.3971 22.4229C49.3904 22.5703 49.3837 22.6843 49.377 22.7647H49.4172L53.3673 16.8244H54.3725V24.001H53.5281V20.1011C53.5281 19.9202 53.5315 19.7258 53.5382 19.5181C53.5449 19.3037 53.5516 19.0993 53.5583 18.905C53.5717 18.704 53.5817 18.5264 53.5885 18.3723C53.5952 18.2181 53.6019 18.1042 53.6086 18.0305H53.5683L49.6081 24.001H48.603V16.8244ZM61.7961 24.001H60.8915V20.6539H57.2127V24.001H56.3081V16.8244H57.2127V19.8598H60.8915V16.8244H61.7961V24.001ZM63.7683 16.8244H64.6126V20.7645C64.6126 20.932 64.6092 21.1163 64.6025 21.3173C64.6025 21.5116 64.5992 21.7059 64.5925 21.9003C64.5858 22.0946 64.5757 22.2688 64.5623 22.4229C64.5556 22.5703 64.5489 22.6843 64.5422 22.7647H64.5824L68.5326 16.8244H69.5377V24.001H68.6934V20.1011C68.6934 19.9202 68.6968 19.7258 68.7035 19.5181C68.7102 19.3037 68.7169 19.0993 68.7236 18.905C68.737 18.704 68.747 18.5264 68.7537 18.3723C68.7604 18.2181 68.7671 18.1042 68.7738 18.0305H68.7336L64.7734 24.001H63.7683V16.8244ZM76.7101 24.001H75.6246L72.378 20.3624V24.001H71.4734V16.8244H72.378V20.3021L75.5441 16.8244H76.5694L73.4535 20.3122L76.7101 24.001Z" fill="#3B405D"/>
<path d="M43.9774 34.7018L29.3182 26.234M3.61414 22.7934C4.08876 24.5657 4.90761 26.227 6.02394 27.6826C7.14027 29.1381 8.53222 30.3595 10.1203 31.2768C11.7084 32.1942 13.4616 32.7896 15.2796 33.0291C17.0977 33.2686 18.9452 33.1474 20.7164 32.6726C22.4877 32.1977 24.1482 31.3784 25.603 30.2615C27.0579 29.1446 28.2786 27.7519 29.1955 26.163C30.1123 24.5741 30.7075 22.8201 30.9468 21.001C31.1862 19.182 31.0651 17.3336 30.5905 15.5614C30.1158 13.7892 29.297 12.1279 28.1807 10.6723C27.0643 9.21676 25.6724 7.99542 24.0843 7.07806C22.4962 6.1607 20.7431 5.56528 18.925 5.32581C17.1069 5.08633 15.2595 5.20748 13.4882 5.68234C11.7169 6.1572 10.0564 6.97647 8.60158 8.09337C7.14674 9.21028 5.92604 10.6029 5.00915 12.1919C4.09226 13.7808 3.49715 15.5348 3.2578 17.3538C3.01844 19.1729 3.13953 21.0212 3.61414 22.7934Z" stroke="#879491" stroke-width="1.3299" stroke-linecap="round" stroke-linejoin="round"/>
<path d="M17.553 24.0636L17.8323 24.2171L17.9975 23.9444C18.5879 22.9695 19.3968 21.4461 19.9754 19.8471C20.5479 18.2646 20.9216 16.5378 20.5611 15.1919C19.8497 12.5354 17.1093 10.938 14.4658 11.6466C11.8224 12.3553 10.2474 15.1097 10.9589 17.7661C11.3292 19.149 12.5148 20.4573 13.8009 21.5335C15.0994 22.62 16.5564 23.5157 17.553 24.0636ZM10.1078 17.9943C9.26875 14.8614 11.1292 11.6179 14.2351 10.7852C17.341 9.95256 20.5731 11.8308 21.4122 14.9637C21.9243 16.876 21.2409 19.2951 20.3601 21.3276C19.6002 23.081 18.7291 24.4711 18.4524 24.9127C18.4326 24.9444 18.4158 24.9712 18.4023 24.9929C18.2934 25.0824 18.1588 25.1619 18.0903 25.1803C18.0218 25.1987 17.8655 25.1971 17.7264 25.1741C17.7039 25.162 17.676 25.1472 17.643 25.1297C17.1826 24.8857 15.7336 24.1176 14.1992 22.9792C12.4207 21.6597 10.6199 19.9065 10.1078 17.9943ZM13.0945 17.1936C12.6984 15.7148 13.5773 14.185 15.0406 13.7927C16.5038 13.4004 18.0295 14.2856 18.4255 15.7644C18.8216 17.2433 17.9426 18.7731 16.4794 19.1653C15.0162 19.5576 13.4905 18.6724 13.0945 17.1936ZM13.9455 16.9655C14.214 17.9678 15.2479 18.5722 16.2487 18.3039C17.2495 18.0356 17.8429 16.9949 17.5745 15.9926C17.306 14.9902 16.272 14.3858 15.2713 14.6541C14.2705 14.9224 13.6771 15.9631 13.9455 16.9655Z" fill="#7B8BFF" stroke="#879491" stroke-width="0.664951"/>
<circle cx="0.598456" cy="0.598456" r="0.332476" transform="matrix(0.965892 -0.258943 0.258695 0.965959 18.1143 27.5845)" fill="#D0567A" stroke="#879491" stroke-width="0.531961"/>
</svg>
