<svg width="11" height="15" viewBox="0 0 22 30" fill="none" xmlns="http://www.w3.org/2000/svg">
<path d="M20.6431 10.7141C20.6431 16.0499 11.0003 28.9284 11.0003 28.9284C11.0003 28.9284 1.35742 16.0499 1.35742 10.7141C1.35742 8.1567 2.37336 5.704 4.18175 3.89562C5.99014 2.08723 8.44283 1.07129 11.0003 1.07129C13.5577 1.07129 16.0104 2.08723 17.8188 3.89562C19.6272 5.704 20.6431 8.1567 20.6431 10.7141Z" stroke="#695FEB" stroke-width="2" stroke-linecap="round" stroke-linejoin="round"/>
<path d="M10.9994 13.9286C12.7746 13.9286 14.2137 12.4895 14.2137 10.7143C14.2137 8.93908 12.7746 7.5 10.9994 7.5C9.22424 7.5 7.78516 8.93908 7.78516 10.7143C7.78516 12.4895 9.22424 13.9286 10.9994 13.9286Z" stroke="#695FEB" stroke-width="2" stroke-linecap="round" stroke-linejoin="round"/>
</svg>
