<svg width="94" height="94" viewBox="0 0 94 94" fill="none" xmlns="http://www.w3.org/2000/svg">
<path d="M58.9026 0C55.1944 0 52.1883 2.99636 52.1883 6.69256V6.99676H27.7727C24.5702 6.99676 21.974 9.58453 21.974 12.7767V23.7282H3.96753C1.77632 23.7282 0 25.4987 0 27.6828V90.0453C0 92.2294 1.77632 94 3.96753 94H40.2857C42.4769 94 44.2532 92.2294 44.2532 90.0453V85.4822H61.3442C64.5467 85.4822 67.1429 82.8944 67.1429 79.7023V71.4887H87.2857C90.9939 71.4887 94 68.4923 94 64.7961V6.69256C94 2.99636 90.9939 0 87.2857 0H58.9026Z" fill="#CCD1F5"/>
<path d="M62.2597 25.5534C62.2597 24.7134 62.9429 24.0324 63.7857 24.0324H79.961C80.8038 24.0324 81.487 24.7134 81.487 25.5534C81.487 26.3934 80.8038 27.0744 79.961 27.0744H63.7857C62.9429 27.0744 62.2597 26.3934 62.2597 25.5534Z" fill="#CCD1F5"/>
<path d="M11.2922 51.7152C11.2922 50.8752 11.9754 50.1942 12.8182 50.1942H28.9935C29.8363 50.1942 30.5195 50.8752 30.5195 51.7152C30.5195 52.5553 29.8363 53.2362 28.9935 53.2362H12.8182C11.9754 53.2362 11.2922 52.5553 11.2922 51.7152Z" fill="#CCD1F5"/>
<path d="M62.2597 34.6796C62.2597 33.8396 62.9429 33.1586 63.7857 33.1586H79.961C80.8038 33.1586 81.487 33.8396 81.487 34.6796C81.487 35.5197 80.8038 36.2006 79.961 36.2006H63.7857C62.9429 36.2006 62.2597 35.5197 62.2597 34.6796Z" fill="#CCD1F5"/>
<path d="M11.2922 60.8414C11.2922 60.0014 11.9754 59.3204 12.8182 59.3204H28.9935C29.8363 59.3204 30.5195 60.0014 30.5195 60.8414C30.5195 61.6815 29.8363 62.3625 28.9935 62.3625H12.8182C11.9754 62.3625 11.2922 61.6815 11.2922 60.8414Z" fill="#CCD1F5"/>
<path d="M62.2597 43.8058C62.2597 42.9658 62.9429 42.2848 63.7857 42.2848H79.961C80.8038 42.2848 81.487 42.9658 81.487 43.8058C81.487 44.6459 80.8038 45.3269 79.961 45.3269H63.7857C62.9429 45.3269 62.2597 44.6459 62.2597 43.8058Z" fill="#CCD1F5"/>
<path d="M11.2922 69.9676C11.2922 69.1276 11.9754 68.4466 12.8182 68.4466H28.9935C29.8363 68.4466 30.5195 69.1276 30.5195 69.9676C30.5195 70.8077 29.8363 71.4887 28.9935 71.4887H12.8182C11.9754 71.4887 11.2922 70.8077 11.2922 69.9676Z" fill="#CCD1F5"/>
<path d="M21.0584 12.4725C21.0584 8.9443 23.9279 6.08414 27.4675 6.08414H60.7338C64.2734 6.08414 67.1429 8.9443 67.1429 12.4725V80.3107C67.1429 83.8389 64.2734 86.699 60.7338 86.699H27.4675C23.9279 86.699 21.0584 83.8389 21.0584 80.3107V12.4725Z" fill="#F9F9F9"/>
<path d="M32.1425 35.8722C31.6062 36.419 31.6062 37.3059 32.1425 37.8528C32.6789 38.3999 33.5484 38.3999 34.0848 37.8528L35.9206 35.9804L38.0496 38.1424C38.5871 38.6883 39.4567 38.6865 39.9919 38.1382C40.527 37.5901 40.5252 36.7032 39.9876 36.1576L37.8627 33.9998L39.6957 32.1304C40.232 31.5836 40.232 30.6966 39.6957 30.1498C39.1594 29.6027 38.2898 29.6027 37.7534 30.1498L35.9165 32.0234L34.3646 30.4474C33.8271 29.9018 32.9575 29.9036 32.4224 30.4517C31.8872 31 31.8891 31.8866 32.4265 32.4326L33.9742 34.004L32.1425 35.8722Z" fill="#CCD1F5"/>
<path d="M48.3594 35.9144C47.8231 36.4612 47.8231 37.3482 48.3594 37.895C48.8958 38.4421 49.7653 38.4421 50.3017 37.895L52.1375 36.0226L54.2665 38.1847C54.804 38.7306 55.6736 38.7288 56.2088 38.1804C56.7439 37.6324 56.7421 36.7454 56.2045 36.1998L54.0796 34.042L55.9126 32.1727C56.4489 31.6258 56.4489 30.7389 55.9126 30.1921C55.3763 29.6449 54.5067 29.6449 53.9703 30.1921L52.1334 32.0657L50.5815 30.4896C50.044 29.944 49.1744 29.9459 48.6393 30.4939C48.1041 31.0422 48.106 31.9289 48.6434 32.4748L50.1911 34.0463L48.3594 35.9144Z" fill="#CCD1F5"/>
<path d="M52.1883 56.0405C52.1883 53.6878 51.2719 51.4315 49.6407 49.7679C48.0095 48.1043 45.7971 47.1697 43.4903 47.1697C41.1834 47.1697 38.971 48.1043 37.3398 49.7679C35.7086 51.4315 34.7922 53.6878 34.7922 56.0405H37.0705C37.0705 54.3041 37.7469 52.6387 38.9508 51.4109C40.1548 50.1831 41.7876 49.4933 43.4903 49.4933C45.1929 49.4933 46.8258 50.1831 48.0297 51.4109C49.2336 52.6388 49.91 54.3041 49.91 56.0405H52.1883Z" fill="#CCD1F5"/>
</svg>
