<svg width="14" height="13" viewBox="0 0 14 13" fill="none" xmlns="http://www.w3.org/2000/svg">
<path d="M12.9783 5.35025C12.9331 5.20682 12.8461 5.08017 12.7283 4.98662C12.6106 4.89306 12.4676 4.83686 12.3177 4.82525L9.06594 4.54416C9.04628 4.54222 9.0275 4.535 9.01162 4.52325C8.99573 4.5115 8.98332 4.49567 8.97571 4.47744L7.70532 1.44994C7.64648 1.31183 7.54834 1.19406 7.42311 1.11128C7.29787 1.02851 7.15106 0.984375 7.00094 0.984375C6.85082 0.984375 6.70401 1.02851 6.57878 1.11128C6.45354 1.19406 6.3554 1.31183 6.29657 1.44994L5.02618 4.47744C5.01857 4.49567 5.00616 4.5115 4.99027 4.52325C4.97438 4.535 4.95561 4.54222 4.93594 4.54416L1.68422 4.82525C1.5343 4.83686 1.39127 4.89306 1.27354 4.98662C1.15581 5.08017 1.06877 5.20682 1.0236 5.35025C0.975764 5.49389 0.971585 5.64848 1.01159 5.79449C1.0516 5.9405 1.13399 6.07137 1.24836 6.17056L3.71532 8.32252C3.73042 8.33593 3.74164 8.35317 3.7478 8.37241C3.75396 8.39165 3.75483 8.4122 3.75032 8.43189L3.00875 11.6317C2.97419 11.779 2.98405 11.9332 3.0371 12.075C3.09014 12.2167 3.184 12.3395 3.3068 12.4279C3.4277 12.5171 3.57257 12.568 3.72269 12.5741C3.87282 12.5801 4.02131 12.541 4.14899 12.4618L6.94407 10.7665C6.9605 10.7563 6.97943 10.7509 6.99875 10.7509C7.01808 10.7509 7.03701 10.7563 7.05344 10.7665L9.84852 12.4618C9.97753 12.5408 10.127 12.5798 10.2782 12.5739C10.4293 12.568 10.5754 12.5174 10.6978 12.4286C10.8202 12.3398 10.9136 12.2167 10.9662 12.0749C11.0188 11.933 11.0281 11.7788 10.9931 11.6317L10.2538 8.4308C10.2492 8.4111 10.2501 8.39056 10.2563 8.37132C10.2624 8.35207 10.2736 8.33484 10.2888 8.32142L12.7557 6.16947C12.8695 6.07011 12.9513 5.93931 12.9909 5.79353C13.0305 5.64776 13.0261 5.49353 12.9783 5.35025ZM12.322 5.674L9.85508 7.82595C9.74997 7.91741 9.67181 8.03583 9.62902 8.16843C9.58623 8.30103 9.58044 8.4428 9.61227 8.57845L10.3516 11.7793C10.3571 11.8008 10.3559 11.8235 10.3482 11.8443C10.3405 11.8651 10.3266 11.8831 10.3084 11.8958C10.292 11.909 10.2718 11.9165 10.2507 11.9174C10.2297 11.9183 10.2089 11.9125 10.1914 11.9007L7.39633 10.2054C7.27717 10.133 7.14039 10.0947 7.00094 10.0947C6.86149 10.0947 6.72472 10.133 6.60555 10.2054L3.81047 11.9007C3.79298 11.9125 3.7722 11.9183 3.75115 11.9174C3.7301 11.9165 3.70989 11.909 3.69344 11.8958C3.67528 11.8831 3.66141 11.8651 3.6537 11.8443C3.64598 11.8235 3.64477 11.8008 3.65024 11.7793L4.38961 8.57845C4.42145 8.4428 4.41566 8.30103 4.37287 8.16843C4.33008 8.03583 4.25192 7.91741 4.1468 7.82595L1.67985 5.674C1.66298 5.65965 1.65086 5.64052 1.6451 5.61913C1.63934 5.59775 1.6402 5.57512 1.64758 5.55423C1.65311 5.53344 1.66508 5.51493 1.68179 5.50137C1.69849 5.48781 1.71907 5.4799 1.74055 5.47877L4.99282 5.19767C5.13205 5.18581 5.26538 5.13607 5.37836 5.05384C5.49134 4.97161 5.57966 4.86003 5.63376 4.73119L6.90415 1.70369C6.91298 1.6849 6.92698 1.66901 6.94451 1.65788C6.96203 1.64675 6.98237 1.64084 7.00313 1.64084C7.02389 1.64084 7.04423 1.64675 7.06176 1.65788C7.07928 1.66901 7.09328 1.6849 7.10211 1.70369L8.36813 4.73119C8.42205 4.85972 8.51004 4.9711 8.6226 5.0533C8.73516 5.13551 8.86803 5.18543 9.00688 5.19767L12.2591 5.47877C12.2806 5.4799 12.3012 5.48781 12.3179 5.50137C12.3346 5.51493 12.3466 5.53344 12.3521 5.55423C12.3597 5.5749 12.361 5.5974 12.3556 5.61877C12.3502 5.64014 12.3385 5.65939 12.322 5.674Z" fill="#C4BFBF"/>
</svg>
