<svg width="4" height="3" viewBox="0 0 4 3" fill="none" xmlns="http://www.w3.org/2000/svg">
<path d="M0.20012 3H3.80022C3.83667 2.99989 3.8724 2.98981 3.90356 2.97087C3.93472 2.95193 3.96014 2.92483 3.97707 2.8925C3.994 2.86016 4.00181 2.82381 3.99965 2.78736C3.99749 2.75091 3.98545 2.71574 3.96483 2.68564L2.16478 0.0809944C2.09017 -0.0269981 1.91057 -0.0269981 1.83577 0.0809944L0.0357158 2.68564C0.0148801 2.71568 0.00266165 2.75087 0.000387796 2.78738C-0.00188606 2.82389 0.00587169 2.86033 0.0228182 2.89273C0.0397647 2.92513 0.0652518 2.95227 0.0965103 2.97118C0.127769 2.99009 0.163603 3.00006 0.20012 3ZM2.00017 0.547025L3.41861 2.59929H0.581731L2.00017 0.547025Z" fill="#695FEB"/>
</svg>
