<svg width="4" height="3" viewBox="0 0 4 3" fill="none" xmlns="http://www.w3.org/2000/svg">
<path d="M3.79988 2.55914e-07L0.199777 5.70645e-07C0.163328 0.000115253 0.1276 0.0101858 0.0964389 0.0291282C0.065278 0.0480708 0.039864 0.0751678 0.022933 0.107503C0.0060017 0.139838 -0.00180603 0.176187 0.000350708 0.212637C0.00250745 0.249086 0.0145466 0.284256 0.0351725 0.314361L1.83522 2.91901C1.90983 3.027 2.08943 3.027 2.16423 2.91901L3.96428 0.314361C3.98512 0.284319 3.99734 0.249131 3.99961 0.21262C4.00189 0.17611 3.99413 0.139674 3.97718 0.10727C3.96024 0.0748665 3.93475 0.0477347 3.90349 0.0288229C3.87223 0.00991131 3.8364 -5.72062e-05 3.79988 2.55914e-07ZM1.99983 2.45297L0.581388 0.400715L3.41827 0.400715L1.99983 2.45297Z" fill="#695FEB"/>
</svg>
