<svg width="24" height="30" viewBox="0 0 24 30" fill="none" xmlns="http://www.w3.org/2000/svg">
<path d="M12 0C5.4 0 0 5.4 0 12C0 20.1 10.5 29.25 10.95 29.7C11.25 29.85 11.7 30 12 30C12.3 30 12.75 29.85 13.05 29.7C13.5 29.25 24 20.1 24 12C24 5.4 18.6 0 12 0ZM12 26.55C8.85 23.55 3 17.1 3 12C3 7.05 7.05 3 12 3C16.95 3 21 7.05 21 12C21 16.95 15.15 23.55 12 26.55ZM12 6C8.7 6 6 8.7 6 12C6 15.3 8.7 18 12 18C15.3 18 18 15.3 18 12C18 8.7 15.3 6 12 6ZM12 15C10.35 15 9 13.65 9 12C9 10.35 10.35 9 12 9C13.65 9 15 10.35 15 12C15 13.65 13.65 15 12 15Z" fill="#879491"/>
</svg>
