<svg width="212" height="85" viewBox="0 0 212 85" fill="none" xmlns="http://www.w3.org/2000/svg">
<path d="M43 0C36.4 0 31 5.4 31 12C31 20.1 41.5 29.25 41.95 29.7C42.25 29.85 42.7 30 43 30C43.3 30 43.75 29.85 44.05 29.7C44.5 29.25 55 20.1 55 12C55 5.4 49.6 0 43 0ZM43 26.55C39.85 23.55 34 17.1 34 12C34 7.05 38.05 3 43 3C47.95 3 52 7.05 52 12C52 16.95 46.15 23.55 43 26.55ZM43 6C39.7 6 37 8.7 37 12C37 15.3 39.7 18 43 18C46.3 18 49 15.3 49 12C49 8.7 46.3 6 43 6ZM43 15C41.35 15 40 13.65 40 12C40 10.35 41.35 9 43 9C44.65 9 46 10.35 46 12C46 13.65 44.65 15 43 15Z" fill="#0D0D0D"/>
<path d="M24 74H60" stroke="black" stroke-width="2" stroke-linecap="round" stroke-linejoin="round"/>
<path d="M28 74V42C28 40.9391 28.4365 39.9217 29.2134 39.1716C29.9904 38.4214 31.0441 38 32.1429 38H52.8571C53.9559 38 55.0096 38.4214 55.7866 39.1716C56.5635 39.9217 57 40.9391 57 42V74" stroke="black" stroke-width="2" stroke-linecap="round" stroke-linejoin="round"/>
<path d="M77.013 56H75.285L70.117 50.208V56H68.677V44.576H70.117V50.112L75.157 44.576H76.789L71.829 50.128L77.013 56ZM86.7916 56H85.3516V45.84H81.7356C81.661 46.4267 81.581 47.0453 81.4956 47.696C81.4103 48.336 81.3196 48.9707 81.2236 49.6C81.1383 50.2293 81.053 50.8213 80.9676 51.376C80.8823 51.9307 80.797 52.416 80.7116 52.832C80.573 53.5467 80.4023 54.1547 80.1996 54.656C79.997 55.1573 79.725 55.536 79.3836 55.792C79.053 56.048 78.6156 56.176 78.0716 56.176C77.8903 56.176 77.7036 56.1547 77.5116 56.112C77.3303 56.08 77.1703 56.0373 77.0316 55.984V54.784C77.149 54.8373 77.2823 54.8853 77.4316 54.928C77.581 54.96 77.741 54.976 77.9116 54.976C78.2316 54.976 78.4823 54.848 78.6636 54.592C78.8556 54.3253 79.005 54 79.1116 53.616C79.2183 53.2213 79.309 52.832 79.3836 52.448C79.4476 52.1387 79.5223 51.728 79.6076 51.216C79.693 50.6933 79.7836 50.0853 79.8796 49.392C79.9863 48.6987 80.093 47.9467 80.1996 47.136C80.317 46.3147 80.429 45.4613 80.5356 44.576H86.7916V56ZM89.9118 44.576H91.2558V50.848C91.2558 51.1147 91.2504 51.408 91.2398 51.728C91.2398 52.0373 91.2344 52.3467 91.2238 52.656C91.2131 52.9653 91.1971 53.2427 91.1758 53.488C91.1651 53.7227 91.1544 53.904 91.1438 54.032H91.2078L97.4958 44.576H99.0958V56H97.7517V49.792C97.7517 49.504 97.7571 49.1947 97.7678 48.864C97.7784 48.5227 97.7891 48.1973 97.7998 47.888C97.8211 47.568 97.8371 47.2853 97.8478 47.04C97.8584 46.7947 97.8691 46.6133 97.8798 46.496H97.8158L91.5118 56H89.9118V44.576ZM110.913 56H109.473V50.672H103.617V56H102.177V44.576H103.617V49.408H109.473V44.576H110.913V56ZM114.052 44.576H115.396V50.848C115.396 51.1147 115.391 51.408 115.38 51.728C115.38 52.0373 115.375 52.3467 115.364 52.656C115.354 52.9653 115.338 53.2427 115.316 53.488C115.306 53.7227 115.295 53.904 115.284 54.032H115.348L121.636 44.576H123.236V56H121.892V49.792C121.892 49.504 121.898 49.1947 121.908 48.864C121.919 48.5227 121.93 48.1973 121.94 47.888C121.962 47.568 121.978 47.2853 121.988 47.04C121.999 46.7947 122.01 46.6133 122.02 46.496H121.956L115.652 56H114.052V44.576ZM134.654 56H132.926L127.758 50.208V56H126.318V44.576H127.758V50.112L132.798 44.576H134.43L129.47 50.128L134.654 56ZM143.376 56L142 52.464H137.472L136.112 56H134.656L139.12 44.528H140.416L144.864 56H143.376ZM140.288 47.728C140.256 47.6427 140.203 47.488 140.128 47.264C140.054 47.04 139.979 46.8107 139.904 46.576C139.84 46.3307 139.787 46.144 139.744 46.016C139.691 46.2293 139.632 46.448 139.568 46.672C139.515 46.8853 139.456 47.0827 139.392 47.264C139.339 47.4453 139.291 47.6 139.248 47.728L137.952 51.184H141.568L140.288 47.728ZM81.5838 64.576C83.0771 64.576 84.1651 64.8693 84.8478 65.456C85.5305 66.0427 85.8718 66.8693 85.8718 67.936C85.8718 68.4053 85.7918 68.8587 85.6318 69.296C85.4825 69.7227 85.2318 70.1067 84.8798 70.448C84.5278 70.7893 84.0585 71.0613 83.4718 71.264C82.8851 71.456 82.1651 71.552 81.3118 71.552H79.9998V76H78.5598V64.576H81.5838ZM81.4558 65.808H79.9998V70.32H81.1518C81.8771 70.32 82.4798 70.2453 82.9598 70.096C83.4398 69.936 83.7971 69.6853 84.0318 69.344C84.2665 69.0027 84.3838 68.5547 84.3838 68C84.3838 67.264 84.1491 66.7147 83.6798 66.352C83.2105 65.9893 82.4691 65.808 81.4558 65.808ZM91.6873 71.264L88.7273 76H87.0473L90.2473 71.008C89.842 70.8693 89.458 70.6773 89.0953 70.432C88.7433 70.1867 88.4553 69.8507 88.2313 69.424C88.0073 68.9973 87.8953 68.448 87.8953 67.776C87.8953 66.7413 88.2526 65.952 88.9673 65.408C89.682 64.8533 90.7486 64.576 92.1673 64.576H95.3673V76H93.9273V71.264H91.6873ZM92.1993 65.808C91.5913 65.808 91.0793 65.8773 90.6633 66.016C90.2473 66.1547 89.9273 66.3733 89.7033 66.672C89.49 66.9707 89.3833 67.36 89.3833 67.84C89.3833 68.544 89.618 69.088 90.0873 69.472C90.5566 69.856 91.282 70.048 92.2633 70.048H93.9273V65.808H92.1993ZM106.162 64.576V74.72H107.618V79.008H106.242V76H98.3861V79.008H97.0101V74.72H97.8901C98.2741 74.0587 98.6367 73.3173 98.9781 72.496C99.3301 71.6747 99.6394 70.816 99.9061 69.92C100.173 69.0133 100.391 68.1067 100.562 67.2C100.733 66.2933 100.839 65.4187 100.882 64.576H106.162ZM102.146 65.872C102.103 66.4907 101.997 67.1893 101.826 67.968C101.666 68.7467 101.458 69.5467 101.202 70.368C100.957 71.1787 100.679 71.9627 100.37 72.72C100.071 73.4773 99.7514 74.144 99.4101 74.72H104.738V65.872H102.146ZM119.497 70.272C119.497 71.1573 119.385 71.9627 119.161 72.688C118.937 73.4027 118.601 74.0213 118.153 74.544C117.715 75.0667 117.166 75.4667 116.505 75.744C115.854 76.0213 115.097 76.16 114.233 76.16C113.337 76.16 112.558 76.0213 111.897 75.744C111.235 75.456 110.686 75.056 110.249 74.544C109.811 74.0213 109.486 73.3973 109.273 72.672C109.059 71.9467 108.953 71.1413 108.953 70.256C108.953 69.0827 109.145 68.0587 109.529 67.184C109.913 66.3093 110.494 65.6267 111.273 65.136C112.062 64.6453 113.054 64.4 114.249 64.4C115.39 64.4 116.35 64.6453 117.129 65.136C117.907 65.616 118.494 66.2987 118.889 67.184C119.294 68.0587 119.497 69.088 119.497 70.272ZM110.473 70.272C110.473 71.232 110.606 72.0587 110.873 72.752C111.139 73.4453 111.55 73.9787 112.105 74.352C112.67 74.7253 113.379 74.912 114.233 74.912C115.097 74.912 115.801 74.7253 116.345 74.352C116.899 73.9787 117.31 73.4453 117.577 72.752C117.843 72.0587 117.977 71.232 117.977 70.272C117.977 68.832 117.678 67.7067 117.081 66.896C116.483 66.0747 115.539 65.664 114.249 65.664C113.385 65.664 112.67 65.8507 112.105 66.224C111.55 66.5867 111.139 67.1147 110.873 67.808C110.606 68.4907 110.473 69.312 110.473 70.272ZM127.069 76L123.309 65.984H123.245C123.266 66.1973 123.282 66.4693 123.293 66.8C123.314 67.1307 123.33 67.4933 123.341 67.888C123.351 68.272 123.357 68.6667 123.357 69.072V76H122.029V64.576H124.157L127.677 73.936H127.741L131.325 64.576H133.437V76H132.013V68.976C132.013 68.6027 132.018 68.2347 132.029 67.872C132.039 67.4987 132.055 67.152 132.077 66.832C132.098 66.5013 132.114 66.224 132.125 66H132.061L128.253 76H127.069Z" fill="black"/>
</svg>
