<svg width="32" height="34" viewBox="0 0 32 34" fill="none" xmlns="http://www.w3.org/2000/svg">
<rect width="32" height="34" fill="#F5F5F5"/>
<path d="M-1695 -346C-1695 -347.105 -1694.1 -348 -1693 -348H1028C1029.1 -348 1030 -347.105 1030 -346V4014C1030 4015.1 1029.1 4016 1028 4016H-1693C-1694.1 4016 -1695 4015.1 -1695 4014V-346Z" fill="#E5E5E5"/>
<path d="M-1693 -347H1028V-349H-1693V-347ZM1029 -346V4014H1031V-346H1029ZM1028 4015H-1693V4017H1028V4015ZM-1694 4014V-346H-1696V4014H-1694ZM-1693 4015C-1693.55 4015 -1694 4014.55 -1694 4014H-1696C-1696 4015.66 -1694.66 4017 -1693 4017V4015ZM1029 4014C1029 4014.55 1028.55 4015 1028 4015V4017C1029.66 4017 1031 4015.66 1031 4014H1029ZM1028 -347C1028.55 -347 1029 -346.552 1029 -346H1031C1031 -347.657 1029.66 -349 1028 -349V-347ZM-1693 -349C-1694.66 -349 -1696 -347.657 -1696 -346H-1694C-1694 -346.552 -1693.55 -347 -1693 -347V-349Z" fill="black" fill-opacity="0.1"/>
<rect width="1440" height="1024" transform="translate(-1247 -63)" fill="white"/>
<g filter="url(#filter0_d_0_1)">
<mask id="path-3-inside-1_0_1" fill="white">
<path d="M15.8864 3.44144e-07C17.4403 -0.000479921 18.9535 0.501721 20.2038 1.43289C21.4541 2.36407 22.3756 3.67517 22.8332 5.17376C23.2909 6.67236 23.2604 8.27952 22.7463 9.75935C22.2322 11.2392 21.2616 12.5138 19.977 13.396C22.2068 14.2213 24.1408 15.7012 25.5301 17.6452C26.9193 19.5892 27.7003 21.9083 27.7723 24.304C27.7791 24.437 27.7594 24.57 27.7146 24.6952C27.6697 24.8204 27.6005 24.9353 27.511 25.0332C27.4215 25.131 27.3136 25.2099 27.1935 25.2651C27.0735 25.3203 26.9437 25.3507 26.8118 25.3546C26.6799 25.3585 26.5486 25.3358 26.4255 25.2878C26.3024 25.2398 26.1901 25.1675 26.0951 25.0751C26.0001 24.9827 25.9243 24.8721 25.8722 24.7498C25.8201 24.6274 25.7928 24.4958 25.7918 24.3627C25.7131 21.7646 24.6351 19.2996 22.7862 17.4899C20.9373 15.6802 18.4628 14.6681 15.8871 14.6681C13.3113 14.6681 10.8368 15.6802 8.98793 17.4899C7.13902 19.2996 6.061 21.7646 5.98232 24.3627C5.97443 24.6279 5.86247 24.8791 5.67106 25.061C5.47965 25.2429 5.22447 25.3406 4.96165 25.3327C4.69884 25.3247 4.44993 25.2117 4.26966 25.0186C4.0894 24.8254 3.99256 24.5679 4.00045 24.3027C4.07278 21.9072 4.85383 19.5884 6.24308 17.6447C7.63233 15.7009 9.5662 14.2212 11.7958 13.396C10.5111 12.5138 9.54055 11.2392 9.02648 9.75935C8.51241 8.27952 8.48194 6.67236 8.93955 5.17376C9.39716 3.67517 10.3187 2.36407 11.569 1.43289C12.8193 0.501721 14.3325 -0.000479921 15.8864 3.44144e-07ZM10.6014 7.33333C10.6014 8.74782 11.1582 10.1044 12.1493 11.1046C13.1405 12.1048 14.4847 12.6667 15.8864 12.6667C17.2881 12.6667 18.6323 12.1048 19.6235 11.1046C20.6146 10.1044 21.1714 8.74782 21.1714 7.33333C21.1714 5.91885 20.6146 4.56229 19.6235 3.5621C18.6323 2.5619 17.2881 2 15.8864 2C14.4847 2 13.1405 2.5619 12.1493 3.5621C11.1582 4.56229 10.6014 5.91885 10.6014 7.33333Z"/>
</mask>
<path d="M15.8864 3.44144e-07C17.4403 -0.000479921 18.9535 0.501721 20.2038 1.43289C21.4541 2.36407 22.3756 3.67517 22.8332 5.17376C23.2909 6.67236 23.2604 8.27952 22.7463 9.75935C22.2322 11.2392 21.2616 12.5138 19.977 13.396C22.2068 14.2213 24.1408 15.7012 25.5301 17.6452C26.9193 19.5892 27.7003 21.9083 27.7723 24.304C27.7791 24.437 27.7594 24.57 27.7146 24.6952C27.6697 24.8204 27.6005 24.9353 27.511 25.0332C27.4215 25.131 27.3136 25.2099 27.1935 25.2651C27.0735 25.3203 26.9437 25.3507 26.8118 25.3546C26.6799 25.3585 26.5486 25.3358 26.4255 25.2878C26.3024 25.2398 26.1901 25.1675 26.0951 25.0751C26.0001 24.9827 25.9243 24.8721 25.8722 24.7498C25.8201 24.6274 25.7928 24.4958 25.7918 24.3627C25.7131 21.7646 24.6351 19.2996 22.7862 17.4899C20.9373 15.6802 18.4628 14.6681 15.8871 14.6681C13.3113 14.6681 10.8368 15.6802 8.98793 17.4899C7.13902 19.2996 6.061 21.7646 5.98232 24.3627C5.97443 24.6279 5.86247 24.8791 5.67106 25.061C5.47965 25.2429 5.22447 25.3406 4.96165 25.3327C4.69884 25.3247 4.44993 25.2117 4.26966 25.0186C4.0894 24.8254 3.99256 24.5679 4.00045 24.3027C4.07278 21.9072 4.85383 19.5884 6.24308 17.6447C7.63233 15.7009 9.5662 14.2212 11.7958 13.396C10.5111 12.5138 9.54055 11.2392 9.02648 9.75935C8.51241 8.27952 8.48194 6.67236 8.93955 5.17376C9.39716 3.67517 10.3187 2.36407 11.569 1.43289C12.8193 0.501721 14.3325 -0.000479921 15.8864 3.44144e-07ZM10.6014 7.33333C10.6014 8.74782 11.1582 10.1044 12.1493 11.1046C13.1405 12.1048 14.4847 12.6667 15.8864 12.6667C17.2881 12.6667 18.6323 12.1048 19.6235 11.1046C20.6146 10.1044 21.1714 8.74782 21.1714 7.33333C21.1714 5.91885 20.6146 4.56229 19.6235 3.5621C18.6323 2.5619 17.2881 2 15.8864 2C14.4847 2 13.1405 2.5619 12.1493 3.5621C11.1582 4.56229 10.6014 5.91885 10.6014 7.33333Z" fill="#919191"/>
<path d="M15.8864 3.44144e-07C17.4403 -0.000479921 18.9535 0.501721 20.2038 1.43289C21.4541 2.36407 22.3756 3.67517 22.8332 5.17376C23.2909 6.67236 23.2604 8.27952 22.7463 9.75935C22.2322 11.2392 21.2616 12.5138 19.977 13.396C22.2068 14.2213 24.1408 15.7012 25.5301 17.6452C26.9193 19.5892 27.7003 21.9083 27.7723 24.304C27.7791 24.437 27.7594 24.57 27.7146 24.6952C27.6697 24.8204 27.6005 24.9353 27.511 25.0332C27.4215 25.131 27.3136 25.2099 27.1935 25.2651C27.0735 25.3203 26.9437 25.3507 26.8118 25.3546C26.6799 25.3585 26.5486 25.3358 26.4255 25.2878C26.3024 25.2398 26.1901 25.1675 26.0951 25.0751C26.0001 24.9827 25.9243 24.8721 25.8722 24.7498C25.8201 24.6274 25.7928 24.4958 25.7918 24.3627C25.7131 21.7646 24.6351 19.2996 22.7862 17.4899C20.9373 15.6802 18.4628 14.6681 15.8871 14.6681C13.3113 14.6681 10.8368 15.6802 8.98793 17.4899C7.13902 19.2996 6.061 21.7646 5.98232 24.3627C5.97443 24.6279 5.86247 24.8791 5.67106 25.061C5.47965 25.2429 5.22447 25.3406 4.96165 25.3327C4.69884 25.3247 4.44993 25.2117 4.26966 25.0186C4.0894 24.8254 3.99256 24.5679 4.00045 24.3027C4.07278 21.9072 4.85383 19.5884 6.24308 17.6447C7.63233 15.7009 9.5662 14.2212 11.7958 13.396C10.5111 12.5138 9.54055 11.2392 9.02648 9.75935C8.51241 8.27952 8.48194 6.67236 8.93955 5.17376C9.39716 3.67517 10.3187 2.36407 11.569 1.43289C12.8193 0.501721 14.3325 -0.000479921 15.8864 3.44144e-07ZM10.6014 7.33333C10.6014 8.74782 11.1582 10.1044 12.1493 11.1046C13.1405 12.1048 14.4847 12.6667 15.8864 12.6667C17.2881 12.6667 18.6323 12.1048 19.6235 11.1046C20.6146 10.1044 21.1714 8.74782 21.1714 7.33333C21.1714 5.91885 20.6146 4.56229 19.6235 3.5621C18.6323 2.5619 17.2881 2 15.8864 2C14.4847 2 13.1405 2.5619 12.1493 3.5621C11.1582 4.56229 10.6014 5.91885 10.6014 7.33333Z" stroke="black" stroke-width="2" mask="url(#path-3-inside-1_0_1)"/>
</g>
<defs>
<filter id="filter0_d_0_1" x="0" y="0" width="31.7734" height="33.355" filterUnits="userSpaceOnUse" color-interpolation-filters="sRGB">
<feFlood flood-opacity="0" result="BackgroundImageFix"/>
<feColorMatrix in="SourceAlpha" type="matrix" values="0 0 0 0 0 0 0 0 0 0 0 0 0 0 0 0 0 0 127 0" result="hardAlpha"/>
<feOffset dy="4"/>
<feGaussianBlur stdDeviation="2"/>
<feComposite in2="hardAlpha" operator="out"/>
<feColorMatrix type="matrix" values="0 0 0 0 0 0 0 0 0 0 0 0 0 0 0 0 0 0 0.25 0"/>
<feBlend mode="normal" in2="BackgroundImageFix" result="effect1_dropShadow_0_1"/>
<feBlend mode="normal" in="SourceGraphic" in2="effect1_dropShadow_0_1" result="shape"/>
</filter>
</defs>
</svg>
